name Walk2.mot
datacolumns 19
datarows 10
range 2.64000000 2.68500000
endheader

                time	   L_ground_force_vx	   L_ground_force_vy	   L_ground_force_vz	   L_ground_force_px	   L_ground_force_py	   L_ground_force_pz	   R_ground_force_vx	   R_ground_force_vy	   R_ground_force_vz	   R_ground_force_px	   R_ground_force_py	   R_ground_force_pz	   L_ground_torque_x	   L_ground_torque_y	   L_ground_torque_z	   R_ground_torque_x	   R_ground_torque_y	   R_ground_torque_z	
          2.64000000	         -0.31820039	        105.69730391	         -6.65116495	         -0.06054475	          0.00000000	         -0.01117167	         -0.00000000	          0.00000000	          0.00000000	          0.00000000	          0.00000000	          0.00000000	          0.00000000	          0.19906110	          0.00000000	          0.00000000	          0.00000000	          0.00000000	
          2.64500000	         -3.65820197	        150.47347772	         -8.84998836	         -0.14241980	          0.00000000	         -0.02281100	         -0.00000000	          0.00000000	          0.00000000	          0.00000000	          0.00000000	          0.00000000	          0.00000000	          0.31981879	          0.00000000	          0.00000000	          0.00000000	          0.00000000	
          2.65000000	         -8.67525485	        200.66107780	        -10.78566827	         -0.21468954	          0.00000000	         -0.03319508	         -0.00000000	          0.00000000	          0.00000000	          0.00000000	          0.00000000	          0.00000000	          0.00000000	          0.45695829	          0.00000000	          0.00000000	          0.00000000	          0.00000000	
          2.65500000	        -15.52730113	        253.88758922	        -12.26427354	         -0.27482118	          0.00000000	         -0.04194538	         -0.00000000	          0.00000000	          0.00000000	          0.00000000	          0.00000000	          0.00000000	          0.00000000	          0.60662695	          0.00000000	          0.00000000	          0.00000000	          0.00000000	
          2.66000000	        -24.07282199	        307.42434737	        -13.14937025	         -0.32216012	          0.00000000	         -0.04895959	         -0.00000000	          0.00000000	          0.00000000	          0.00000000	          0.00000000	          0.00000000	          0.00000000	          0.76262813	          0.00000000	          0.00000000	          0.00000000	          0.00000000	
          2.66500000	        -33.81551075	        359.07181012	        -13.34866544	         -0.35729883	          0.00000000	         -0.05431102	         -0.00000000	          0.00000000	         -0.00000000	         -0.00000000	          0.00000000	         -0.00000000	          0.00000000	          0.91736700	          0.00000000	          0.00000000	          0.00000000	          0.00000000	
          2.67000000	        -44.07374875	        407.50634629	        -12.79724674	         -0.38157799	          0.00000000	         -0.05817896	         -0.00000000	          0.00000000	         -0.00000000	         -0.00000000	          0.00000000	         -0.00000000	          0.00000000	          1.06456952	          0.00000000	          0.00000000	          0.00000000	          0.00000000	
          2.67500000	        -54.23915596	        452.19738721	        -11.48389075	         -0.39670639	          0.00000000	         -0.06079422	         -0.00000000	         -0.00000000	         -0.00000000	         -0.00000000	          0.00000000	         -0.00000000	          0.00000000	          1.20057543	          0.00000000	          0.00000000	          0.00000000	          0.00000000	
          2.68000000	        -63.96592994	        493.20198719	         -9.47844173	         -0.40449247	          0.00000000	         -0.06239923	         -0.00000000	         -0.00000001	         -0.00000000	         -0.00000000	          0.00000000	         -0.00000000	          0.00000000	          1.32503358	          0.00000000	          0.00000000	         -0.00000000	          0.00000000	
          2.68500000	        -73.18657686	        530.86585054	         -6.92764453	         -0.40667439	          0.00000000	         -0.06322157	         -0.00000000	         -0.00000001	         -0.00000000	         -0.00000000	          0.00000000	         -0.00000000	          0.00000000	          1.44085776	          0.00000000	          0.00000000	         -0.00000000	          0.00000000	
